# xmcd
#
# Track frame offsets:
#	150
#	10185
#	20580
#	33327
#	44877
#	56245
#	67245
#	79207
#	90607
#	103160
#	115282
#	125720
#	137852
#	150082
#	161547
#
# Disc length: 2295 seconds
#
# Revision: 1
# Processed by: cddbd v1.5.2PL0 Copyright (c) Steve Scherf et al.
# Submitted via: audiograbber 1.83.01
#
DISCID=d208f50f
DTITLE=Ira Louvin - The Complete Recordings
DYEAR=2000
DGENRE=
TTITLE0=Empty Wallet and a Broken Heart
TTITLE1=Yodel, Sweet Molly
TTITLE2=It Ain't Funny Enough
TTITLE3=Bottom of the Bottle
TTITLE4=Make Believe It's Me
TTITLE5=Who Throwed Dat Rock
TTITLE6=Life Is Too Short
TTITLE7=These Two Eyes
TTITLE8=Something Has Just Got to Give
TTITLE9=You're Looking For An Angel
TTITLE10=Right Side of the Road
TTITLE11=Master of the Universe
TTITLE12=This Is the Door
TTITLE13=I Wish I Could Say I Wonder
TTITLE14=You're As Welcome As the Flowers in May
EXTD=
EXTT0=
EXTT1=
EXTT2=
EXTT3=
EXTT4=
EXTT5=
EXTT6=
EXTT7=
EXTT8=
EXTT9=
EXTT10=
EXTT11=
EXTT12=
EXTT13=
EXTT14=
PLAYORDER=
